<svg id="Layer_1" data-name="Layer 1" xmlns="http://www.w3.org/2000/svg" xmlns:xlink="http://www.w3.org/1999/xlink" viewBox="0 0 267.008 87.24">
  <defs>
    <style>
      .cls-1 {
        fill: none;
      }

      .cls-2 {
        clip-path: url(#clip-path);
      }

      .cls-3 {
        fill: orange;
      }

      .cls-4 {
        fill: #fff;
      }
    </style>
    <clipPath id="clip-path" transform="translate(0)">
      <rect class="cls-1" width="267.007" height="87.24"/>
    </clipPath>
  </defs>
  <title>ebb8ff13-0c38-457e-acda-da5d2db54c2f</title>
  <g id="DTA_logo_reverse" data-name="DTA logo reverse">
    <g class="cls-2">
      <g class="cls-2">
        <path class="cls-3" d="M121.289,85.228a3.224,3.224,0,0,1-3.146-3.146V23.664H96.434a2.967,2.967,0,0,1-2.256-.944,3.229,3.229,0,0,1-.892-2.307V6.149a3.1,3.1,0,0,1,.892-2.2A2.967,2.967,0,0,1,96.434,3h72.575a3.14,3.14,0,0,1,2.307.944,3.018,3.018,0,0,1,.944,2.2V20.413a3.223,3.223,0,0,1-3.251,3.251H147.4V82.082a3.112,3.112,0,0,1-.891,2.2,2.972,2.972,0,0,1-2.255.944Z" transform="translate(0)"/>
        <rect class="cls-3" x="25.307" y="36.995" width="7.377" height="9.745"/>
        <rect class="cls-4" x="24.95" y="48.325" width="7.734" height="10.459"/>
        <rect class="cls-3" x="36.995" y="25.307" width="9.745" height="2.657"/>
        <polygon class="cls-4" points="25.664 25.664 25.664 34.695 32.684 34.695 32.684 27.964 34.695 27.964 34.695 25.664 25.664 25.664"/>
        <rect class="cls-3" x="25.664" y="13.976" width="9.031" height="9.031"/>
        <rect class="cls-3" x="13.262" y="48.325" width="10.459" height="10.459"/>
        <rect class="cls-3" x="13.976" y="25.664" width="9.031" height="9.031"/>
        <path class="cls-3" d="M58.785,12.033V3.405a55.868,55.868,0,0,0-6.8-.4H48.326v9.031Z" transform="translate(0)"/>
        <rect class="cls-4" x="13.332" y="13.332" width="8.317" height="8.317"/>
        <rect class="cls-3" x="13.619" y="36.995" width="9.745" height="9.745"/>
        <rect class="cls-3" x="36.995" y="13.619" width="9.745" height="9.745"/>
        <path class="cls-3" d="M82.5,14.434a39.805,39.805,0,0,0-22.845-10.9V12.39H70.83v.515H59.657V24.078H70.83v.515H59.657v5.532a11.122,11.122,0,0,1,2.288,1.929,12.528,12.528,0,0,1,2.267,3.712H70.83v.515H64.394a23.226,23.226,0,0,1,1.222,7.939,27.547,27.547,0,0,1-.192,3.234H70.83v.514H65.372a14.432,14.432,0,0,1-3.636,8.261,11.533,11.533,0,0,1-2.079,1.7v1.212H70.83v.514H59.657V70.83h-.515V59.656H55.594a21.363,21.363,0,0,1-5.29.611H47.969V70.83h-.514V60.267H36.281V70.83h-.514V60.267H32.684v-.611H24.593V70.83h-.514V59.656H12.9V70.83h-.514V59.656H3V82.081a3.021,3.021,0,0,0,.944,2.2,3.135,3.135,0,0,0,2.307.944H52.4q18.352,0,30-11.537Q94.142,62.05,94.144,44.115q0-18.353-11.642-29.681" transform="translate(0)"/>
        <path class="cls-4" d="M7.6,0H3.252A3.133,3.133,0,0,0,.945.944,3.016,3.016,0,0,0,0,3.146V7.6H7.6Z" transform="translate(0)"/>
        <rect class="cls-3" x="2.001" y="24.663" width="8.317" height="9.031"/>
        <rect class="cls-3" x="1.001" y="12.331" width="7.96" height="8.317"/>
        <rect class="cls-3" x="3.002" y="48.325" width="9.031" height="10.459"/>
        <rect class="cls-4" x="3.002" y="36.995" width="8.674" height="9.745"/>
        <rect class="cls-4" x="48.326" y="13.262" width="10.459" height="10.459"/>
        <rect class="cls-3" x="12.331" y="1.001" width="8.317" height="7.96"/>
        <path class="cls-3" d="M48.325,24.95v3.014h2.817a16.284,16.284,0,0,1,7.642,1.645V24.95Z" transform="translate(0)"/>
        <path class="cls-3" d="M58.785,58.426c-.232.124-.463.247-.706.358h.706Z" transform="translate(0)"/>
        <rect class="cls-3" x="36.995" y="3.002" width="9.745" height="8.674"/>
        <rect class="cls-3" x="25.664" y="2.001" width="9.031" height="8.317"/>
        <rect class="cls-3" x="248.344" y="56.673" width="8.425" height="8.425"/>
        <rect class="cls-3" x="226.203" y="66.243" width="9.091" height="9.091"/>
        <rect class="cls-4" x="259.914" y="80.147" width="7.094" height="7.093"/>
        <rect class="cls-3" x="226.203" y="55.338" width="9.091" height="9.092"/>
        <rect class="cls-3" x="225.87" y="33.197" width="9.758" height="9.758"/>
        <rect class="cls-4" x="248.677" y="67.909" width="7.759" height="7.759"/>
        <polygon class="cls-3" points="220.952 53.859 224.723 53.859 224.723 44.101 215.905 44.101 220.952 53.859"/>
        <rect class="cls-3" x="226.203" y="44.435" width="9.091" height="9.091"/>
        <rect class="cls-3" x="214.966" y="65.91" width="9.758" height="7.246"/>
        <polygon class="cls-4" points="214.967 42.287 215.313 42.955 224.725 42.955 224.725 33.197 214.967 33.197 214.967 42.287"/>
        <rect class="cls-4" x="214.966" y="55.005" width="9.758" height="9.758"/>
        <path class="cls-3" d="M224.741,3.516a3.008,3.008,0,0,0-1.573-.524H204.6a3.445,3.445,0,0,0-1.573.524,2.928,2.928,0,0,0-1.258,1.154L158.667,80.5a2.909,2.909,0,0,0-.1,3.251,3.34,3.34,0,0,0,3.042,1.469h21.71a3.148,3.148,0,0,0,1.678-.524,3.6,3.6,0,0,0,1.258-1.259L191.6,73.156h22.554v-7.58H203.729V65.1h10.424V54.7H201.877l6.03-10.929h-4.178v-.479h4.443l3.774-6.841,2.207,4.267v-7.85H203.729v-.48h10.424V21.961h.48V32.385h10.424V21.961h.48V32.385h10.424v-9L226,4.774a3.639,3.639,0,0,0-1.259-1.258" transform="translate(0)"/>
        <rect class="cls-3" x="248.677" y="78.814" width="7.759" height="7.404"/>
        <path class="cls-4" d="M237.44,84.663c.017.009.028.02.044.029a3.25,3.25,0,0,0,1.625.525h6.756V77.479H237.44Z" transform="translate(0)"/>
        <rect class="cls-3" x="237.44" y="66.576" width="8.425" height="8.425"/>
        <polygon class="cls-3" points="236.774 33.198 236.774 42.956 246.437 42.956 241.213 33.198 236.774 33.198"/>
        <polygon class="cls-3" points="236.441 24.281 236.441 32.385 240.779 32.385 236.441 24.281"/>
        <rect class="cls-3" x="237.107" y="44.435" width="9.092" height="9.091"/>
        <rect class="cls-4" x="237.44" y="55.672" width="8.425" height="8.425"/>
        <rect class="cls-3" x="259.722" y="69.676" width="5.992" height="5.993"/>
        <rect class="cls-3" x="231.813" y="77.479" width="3.115" height="3.115"/>
        <rect class="cls-4" x="259.722" y="63.317" width="3.114" height="3.115"/>
        <rect class="cls-3" x="248.011" y="48.563" width="5.964" height="5.964"/>
      </g>
    </g>
  </g>
</svg>
