<!-- Generator: Adobe Illustrator 21.0.0, SVG Export Plug-In  -->
<svg version="1.1"
	 xmlns="http://www.w3.org/2000/svg" xmlns:xlink="http://www.w3.org/1999/xlink" xmlns:a="http://ns.adobe.com/AdobeSVGViewerExtensions/3.0/"
	 x="0px" y="0px" width="148.201px" height="22.586px" viewBox="0 0 148.201 22.586"
	 style="enable-background:new 0 0 148.201 22.586;" xml:space="preserve">
<style type="text/css">
	.st0{fill:#174478;}
	.st1{fill:none;stroke:#808184;stroke-width:0.1073;stroke-miterlimit:10;}
	.st2{fill:none;stroke:#FFFFFF;stroke-width:0.2146;stroke-miterlimit:10;}
	.st3{fill:#FFFFFF;}
	.st4{fill:#0072AF;}
	.st5{fill:#FDB714;}
	.st6{fill:none;stroke:#FFFFFF;stroke-width:0.2083;stroke-miterlimit:10;}
	.st7{fill:none;stroke:#FDB714;stroke-width:0.2083;stroke-miterlimit:10;}
	.st8{fill:none;stroke:#FDB714;stroke-width:0.1768;stroke-miterlimit:10;}
	.st9{fill:#FDB714;stroke:#FDB714;stroke-width:0.1588;stroke-miterlimit:10;}
	.st10{fill:none;stroke:#FFFFFF;stroke-width:0.1454;stroke-miterlimit:10;}
	.st11{fill:none;stroke:#0072AF;stroke-width:0.0694;stroke-miterlimit:10;}
	.st12{fill:none;stroke:#0072AF;stroke-width:0.0694;stroke-miterlimit:10;stroke-dasharray:0.2867,0.2867;}
	.st13{fill:none;stroke:#FDB714;stroke-width:0.2777;stroke-miterlimit:10;}
	.st14{fill:#8A8A8A;}
	.st15{fill:#E3E3E3;}
</style>
<defs>
</defs>
<rect class="st0" width="22.586" height="22.586"/>
<rect x="31.404" class="st0" width="22.586" height="22.586"/>
<rect x="62.808" class="st0" width="22.586" height="22.586"/>
<rect x="94.211" class="st0" width="22.586" height="22.586"/>
<rect x="125.615" class="st0" width="22.586" height="22.586"/>
<g>
	<path class="st1" d="M21.161,15.65c0,0-3.655,2.473-9.868,2.473S1.425,15.65,1.425,15.65s5.197,3.869,9.868,3.869
		S21.161,15.65,21.161,15.65z"/>
	<line class="st1" x1="11.293" y1="20.334" x2="11.293" y2="16.035"/>
	<path class="st1" d="M9.221,16.823c0,0,0,0.815,0.263,1.853c0.264,1.037,0.702,1.593,0.702,1.593"/>
	<path class="st1" d="M7.2,16.696c0,0,0.122,0.977,0.861,2.085s1.078,1.313,1.078,1.313"/>
	<path class="st1" d="M5.371,16.495c0,0,0.352,0.952,0.826,1.69c0.475,0.737,1.323,1.434,1.323,1.434"/>
	<path class="st1" d="M3.721,16.228c0,0,0.187,0.637,0.663,1.287c0.476,0.65,1.051,1.141,1.051,1.141"/>
	<path class="st1" d="M13.365,16.823c0,0,0,0.815-0.263,1.853c-0.264,1.037-0.702,1.593-0.702,1.593"/>
	<path class="st1" d="M15.386,16.696c0,0-0.122,0.977-0.861,2.085s-1.078,1.313-1.078,1.313"/>
	<path class="st1" d="M17.215,16.495c0,0-0.352,0.952-0.826,1.69c-0.475,0.737-1.323,1.434-1.323,1.434"/>
	<path class="st1" d="M18.865,16.228c0,0-0.187,0.637-0.663,1.287c-0.476,0.65-1.051,1.141-1.051,1.141"/>
	<path class="st1" d="M5.912,15.321c0,0,1.382,0.922,3.177,1.174c1.795,0.252,2.205,0.201,2.205,0.201"/>
	<path class="st1" d="M16.674,15.321c0,0-1.382,0.922-3.177,1.174c-1.795,0.252-2.205,0.201-2.205,0.201"/>
	<path class="st1" d="M5.371,15.733c0,0,0.28,0.172,0.816,0.424c0.536,0.252,1.529,0.58,1.529,0.58"/>
	<line class="st1" x1="4.767" y1="16.011" x2="5.756" y2="16.545"/>
	<path class="st1" d="M17.215,15.733c0,0-0.28,0.172-0.816,0.424c-0.536,0.252-1.529,0.58-1.529,0.58"/>
	<line class="st1" x1="17.819" y1="16.011" x2="16.83" y2="16.545"/>
	<path class="st1" d="M7.02,15.208c0,0-0.146,0.686-0.624,0.949c-0.478,0.263-1.135,0.337-1.135,0.337"/>
	<path class="st1" d="M8.084,15.614c0,0-0.15,0.378-0.463,0.713c-0.202,0.216-0.6,0.373-0.6,0.373"/>
	<path class="st1" d="M9.221,15.874c0,0-0.194,0.283-0.482,0.562c-0.21,0.204-0.57,0.346-0.57,0.346"/>
	<path class="st1" d="M10.187,15.993c0,0-0.085,0.285-0.225,0.502c-0.14,0.217-0.314,0.344-0.314,0.344"/>
	<path class="st1" d="M15.566,15.208c0,0,0.146,0.686,0.624,0.949c0.478,0.263,1.135,0.337,1.135,0.337"/>
	<path class="st1" d="M14.502,15.614c0,0,0.15,0.378,0.463,0.713c0.202,0.216,0.6,0.373,0.6,0.373"/>
	<path class="st1" d="M13.365,15.874c0,0,0.194,0.283,0.482,0.562c0.21,0.204,0.57,0.346,0.57,0.346"/>
	<path class="st1" d="M12.399,15.993c0,0,0.085,0.285,0.225,0.502c0.14,0.217,0.314,0.344,0.314,0.344"/>
	<path class="st2" d="M11.293,20.334c5.396,0,9.868-4.683,9.868-4.683s-3.257,1.214-9.868,1.214S1.425,15.65,1.425,15.65
		S5.897,20.334,11.293,20.334z"/>
	<path class="st2" d="M19.271,16.147c0,0-1.333,0.128-2.273-0.496c-0.622-0.413-0.443-1.079-0.443-1.079s-1.437,1.465-5.261,1.465
		s-5.261-1.465-5.261-1.465s0.179,0.666-0.443,1.079c-0.94,0.624-2.273,0.496-2.273,0.496"/>
</g>
<rect x="4.578" y="3.092" transform="matrix(0.9465 0.3226 -0.3226 0.9465 1.5646 -1.5422)" class="st3" width="1.714" height="1.714"/>
<rect x="10.53" y="13.714" transform="matrix(0.9465 0.3226 -0.3226 0.9465 5.3098 -2.8945)" class="st4" width="1.714" height="1.714"/>
<rect x="16.183" y="4.538" transform="matrix(0.9895 -0.1446 0.1446 0.9895 -0.6244 2.5475)" class="st4" width="2.064" height="2.064"/>
<rect x="7.256" y="5.712" transform="matrix(0.9994 0.0352 -0.0352 0.9994 0.2634 -0.3077)" class="st4" width="3.215" height="3.215"/>
<rect x="12.012" y="9.495" transform="matrix(0.9805 -0.1967 0.1967 0.9805 -1.873 2.8415)" class="st3" width="2.705" height="2.705"/>
<rect x="11.585" y="2.379" transform="matrix(0.5877 0.8091 -0.8091 0.5877 8.3534 -8.9291)" class="st5" width="2.705" height="2.705"/>
<rect x="5.464" y="10.921" transform="matrix(-0.0352 0.9994 -0.9994 -0.0352 18.7663 5.8837)" class="st5" width="2.159" height="2.159"/>
<rect x="15.828" y="8.842" transform="matrix(-0.2724 0.9622 -0.9622 -0.2724 30.0252 -3.7879)" class="st5" width="1.234" height="1.234"/>
<rect x="35.701" y="5.565" class="st3" width="3.638" height="3.638"/>
<rect x="39.635" y="5.565" class="st4" width="3.638" height="3.638"/>
<rect x="43.57" y="5.565" class="st5" width="3.638" height="3.638"/>
<rect x="35.701" y="9.474" class="st3" width="3.638" height="3.638"/>
<rect x="39.635" y="9.474" class="st4" width="3.638" height="3.638"/>
<rect x="46.72" y="9.474" class="st5" width="3.638" height="3.638"/>
<rect x="35.701" y="13.383" class="st3" width="3.638" height="3.638"/>
<rect x="39.635" y="13.383" class="st4" width="3.638" height="3.638"/>
<rect x="43.57" y="13.383" class="st5" width="3.638" height="3.638"/>
<g>
	<g>
		<line class="st6" x1="48.539" y1="11.293" x2="44.586" y2="11.293"/>
		<g>
			<path class="st3" d="M46.01,10.293c0.031,0.048,0.017,0.113-0.032,0.144l-1.344,0.856l1.344,0.856
				c0.048,0.031,0.063,0.095,0.032,0.144s-0.096,0.062-0.144,0.032l-1.482-0.944c-0.03-0.019-0.048-0.052-0.048-0.088
				s0.018-0.069,0.048-0.088l1.482-0.944c0.017-0.011,0.037-0.016,0.056-0.016C45.956,10.245,45.99,10.262,46.01,10.293z"/>
		</g>
	</g>
</g>
<rect x="76.191" y="2.832" transform="matrix(-1.836970e-16 1 -1 -1.836970e-16 82.6609 -73.3589)" class="st4" width="3.638" height="3.638"/>
<rect x="76.191" y="6.767" transform="matrix(-1.836970e-16 1 -1 -1.836970e-16 86.5955 -69.4243)" class="st3" width="3.638" height="3.638"/>
<rect x="72.282" y="2.832" transform="matrix(-1.836970e-16 1 -1 -1.836970e-16 78.7515 -69.4496)" class="st4" width="3.638" height="3.638"/>
<rect x="72.282" y="6.767" transform="matrix(-1.836970e-16 1 -1 -1.836970e-16 82.6862 -65.515)" class="st3" width="3.638" height="3.638"/>
<rect x="72.282" y="16.109" transform="matrix(-1.836970e-16 1 -1 -1.836970e-16 92.0286 -56.1725)" class="st5" width="3.638" height="3.638"/>
<rect x="68.372" y="2.832" transform="matrix(-1.836970e-16 1 -1 -1.836970e-16 74.8422 -65.5403)" class="st3" width="3.638" height="3.638"/>
<rect x="68.372" y="6.767" transform="matrix(-1.836970e-16 1 -1 -1.836970e-16 78.7769 -61.6057)" class="st3" width="3.638" height="3.638"/>
<rect x="65.397" y="14.809" transform="matrix(-1.836970e-16 1 -1 -1.836970e-16 83.8444 -50.5884)" class="st5" width="3.638" height="3.638"/>
<g>
	<g>
		<path class="st7" d="M70.428,11.123c0,0,0.069,1.045-0.208,1.81c-0.198,0.548-0.6,1.118-0.813,1.398"/>
		<g>
			<polygon class="st5" points="69.114,13.266 69.32,13.24 69.448,14.259 70.455,14.058 70.495,14.262 69.269,14.507 			"/>
		</g>
	</g>
</g>
<rect x="79.128" y="14.809" transform="matrix(4.500204e-11 1 -1 4.500204e-11 97.5748 -64.3187)" class="st5" width="3.638" height="3.638"/>
<g>
	<g>
		<path class="st7" d="M77.735,11.123c0,0-0.069,1.045,0.208,1.81c0.198,0.548,0.6,1.118,0.813,1.398"/>
		<g>
			<polygon class="st5" points="77.668,14.262 77.708,14.058 78.715,14.259 78.842,13.24 79.049,13.266 78.894,14.507 			"/>
		</g>
	</g>
</g>
<g>
	<g>
		<line class="st7" x1="74.101" y1="11.293" x2="74.101" y2="15.303"/>
		<g>
			<polygon class="st5" points="73.249,14.613 73.401,14.471 74.1,15.223 74.8,14.471 74.952,14.613 74.1,15.529 			"/>
		</g>
	</g>
</g>
<g>
	<g>
		<line class="st8" x1="75.237" y1="5.287" x2="78.097" y2="5.287"/>
		<g>
			<polygon class="st5" points="77.512,6.01 77.391,5.88 78.029,5.287 77.391,4.693 77.512,4.564 78.289,5.287 			"/>
		</g>
	</g>
</g>
<g>
	<g>
		<line class="st8" x1="73.914" y1="4.224" x2="76.775" y2="4.224"/>
		<g>
			<polygon class="st5" points="74.5,4.947 74.62,4.817 73.982,4.224 74.62,3.63 74.5,3.501 73.722,4.224 			"/>
		</g>
	</g>
</g>
<path class="st9" d="M98.93,4.306v13.393c0,0.316,0.256,0.573,0.573,0.573h0.547c0.189,0,0.342-0.153,0.342-0.342v-0.29
	c0-0.189,0.153-0.342,0.342-0.342h9.539c0.189,0,0.342,0.153,0.342,0.342v0.29c0,0.189,0.153,0.342,0.342,0.342h0.547
	c0.316,0,0.573-0.256,0.573-0.573V4.306c0-0.316-0.256-0.573-0.573-0.573H99.503C99.187,3.733,98.93,3.989,98.93,4.306z"/>
<g>
	<rect x="100.449" y="5.122" class="st5" width="10.111" height="10.708"/>
	<path class="st0" d="M110.363,5.318v10.314h-9.717V5.318H110.363 M110.756,4.925h-10.504v11.101h10.504V4.925L110.756,4.925z"/>
</g>
<circle class="st0" cx="108.379" cy="10.475" r="1.113"/>
<path class="st3" d="M108.47,9.988c-0.018-0.081-0.091-0.407-0.091-0.407l-0.091,0.407c-0.23,0.043-0.405,0.244-0.405,0.487
	c0,0.274,0.222,0.496,0.496,0.496c0.274,0,0.496-0.222,0.496-0.496C108.875,10.233,108.7,10.031,108.47,9.988z"/>
<path class="st0" d="M106.518,10.126c-0.107,0-0.202,0.049-0.266,0.125l-1.66-0.181c-0.092-0.01-0.174,0.045-0.174,0.116v0.282
	v0.012v0.282c0,0.071,0.082,0.126,0.174,0.116l1.66-0.181c0.064,0.076,0.159,0.125,0.266,0.125c0.193,0,0.349-0.156,0.349-0.349
	C106.867,10.283,106.711,10.126,106.518,10.126z"/>
<rect x="127.831" y="1.609" class="st5" width="2.858" height="2.858"/>
<rect x="130.922" y="1.609" class="st5" width="2.858" height="2.858"/>
<rect x="137.394" y="7.089" transform="matrix(0.961 -0.2765 0.2765 0.961 3.056 38.7128)" class="st5" width="2.858" height="2.858"/>
<rect x="127.831" y="4.68" class="st5" width="2.858" height="2.858"/>
<rect x="130.922" y="4.68" class="st5" width="2.858" height="2.858"/>
<rect x="138.775" y="12.811" transform="matrix(0.985 -0.1726 0.1726 0.985 -0.3539 24.41)" class="st5" width="2.858" height="2.858"/>
<rect x="127.831" y="7.751" class="st5" width="2.858" height="2.858"/>
<rect x="140.733" y="9.418" transform="matrix(0.9631 0.2691 -0.2691 0.9631 8.1642 -37.8588)" class="st5" width="2.858" height="2.858"/>
<rect x="139.926" y="16.576" transform="matrix(0.866 0.5 -0.5 0.866 27.9407 -68.2654)" class="st5" width="2.858" height="2.858"/>
<g>
	<g>
		<path class="st3" d="M144.094,13.264l-0.892,7.098H141h-2.202l-0.892-7.098H141H144.094 M144.588,12.828H141h-3.589l1.002,7.97
			H141h2.587L144.588,12.828L144.588,12.828z"/>
	</g>
	<line class="st10" x1="141" y1="13.021" x2="141" y2="20.597"/>
	<line class="st10" x1="142.2" y1="13.021" x2="141.795" y2="20.461"/>
	<line class="st10" x1="143.332" y1="13.021" x2="142.596" y2="20.597"/>
	<line class="st10" x1="139.799" y1="13.021" x2="140.204" y2="20.461"/>
	<line class="st10" x1="138.667" y1="13.021" x2="139.403" y2="20.597"/>
	<line class="st10" x1="137.796" y1="14.24" x2="144.101" y2="14.24"/>
	<line class="st10" x1="137.891" y1="15.3" x2="144.101" y2="15.3"/>
	<line class="st10" x1="138.087" y1="16.36" x2="143.834" y2="16.36"/>
	<line class="st10" x1="138.087" y1="17.42" x2="143.834" y2="17.42"/>
	<line class="st10" x1="138.305" y1="18.48" x2="143.554" y2="18.48"/>
	<line class="st10" x1="138.474" y1="19.54" x2="143.448" y2="19.54"/>
</g>
<g>
	<g>
		<polyline class="st11" points="136.871,4.328 136.871,4.467 136.732,4.467 		"/>
		<line class="st12" x1="136.446" y1="4.467" x2="134.296" y2="4.467"/>
		<polyline class="st11" points="134.152,4.467 134.013,4.467 134.013,4.328 		"/>
		<line class="st12" x1="134.013" y1="4.041" x2="134.013" y2="1.891"/>
		<polyline class="st11" points="134.013,1.748 134.013,1.609 134.152,1.609 		"/>
		<line class="st12" x1="134.439" y1="1.609" x2="136.589" y2="1.609"/>
		<polyline class="st11" points="136.732,1.609 136.871,1.609 136.871,1.748 		"/>
		<line class="st12" x1="136.871" y1="2.035" x2="136.871" y2="4.185"/>
	</g>
</g>
<g>
	<g>
		<polyline class="st11" points="136.871,7.399 136.871,7.538 136.732,7.538 		"/>
		<line class="st12" x1="136.446" y1="7.538" x2="134.296" y2="7.538"/>
		<polyline class="st11" points="134.152,7.538 134.013,7.538 134.013,7.399 		"/>
		<line class="st12" x1="134.013" y1="7.112" x2="134.013" y2="4.962"/>
		<polyline class="st11" points="134.013,4.819 134.013,4.68 134.152,4.68 		"/>
		<line class="st12" x1="134.439" y1="4.68" x2="136.589" y2="4.68"/>
		<polyline class="st11" points="136.732,4.68 136.871,4.68 136.871,4.819 		"/>
		<line class="st12" x1="136.871" y1="5.106" x2="136.871" y2="7.256"/>
	</g>
</g>
<g>
	<g>
		<polyline class="st11" points="133.78,10.47 133.78,10.609 133.641,10.609 		"/>
		<line class="st12" x1="133.355" y1="10.609" x2="131.204" y2="10.609"/>
		<polyline class="st11" points="131.061,10.609 130.922,10.609 130.922,10.47 		"/>
		<line class="st12" x1="130.922" y1="10.183" x2="130.922" y2="8.033"/>
		<polyline class="st11" points="130.922,7.89 130.922,7.751 131.061,7.751 		"/>
		<line class="st12" x1="131.348" y1="7.751" x2="133.498" y2="7.751"/>
		<polyline class="st11" points="133.641,7.751 133.78,7.751 133.78,7.89 		"/>
		<line class="st12" x1="133.78" y1="8.177" x2="133.78" y2="10.327"/>
	</g>
</g>
<g>
	<g>
		<polyline class="st11" points="136.871,10.47 136.871,10.609 136.732,10.609 		"/>
		<line class="st12" x1="136.446" y1="10.609" x2="134.296" y2="10.609"/>
		<polyline class="st11" points="134.152,10.609 134.013,10.609 134.013,10.47 		"/>
		<line class="st12" x1="134.013" y1="10.183" x2="134.013" y2="8.033"/>
		<polyline class="st11" points="134.013,7.89 134.013,7.751 134.152,7.751 		"/>
		<line class="st12" x1="134.439" y1="7.751" x2="136.589" y2="7.751"/>
		<polyline class="st11" points="136.732,7.751 136.871,7.751 136.871,7.89 		"/>
		<line class="st12" x1="136.871" y1="8.177" x2="136.871" y2="10.327"/>
	</g>
</g>
<g>
	<g>
		<path class="st13" d="M135.755,5.68c0,0,2.813-1.766,4.65-0.755c1.386,0.763,1.369,1.984,1.277,2.537"/>
		<g>
			<polygon class="st5" points="140.585,6.439 140.804,6.267 141.648,7.345 142.661,6.424 142.848,6.63 141.614,7.751 			"/>
		</g>
	</g>
</g>
<g>
	<polygon class="st14" points="28.321,14.336 20.289,14.336 20.289,8.84 28.321,8.84 28.321,7.08 32.44,11.588 28.321,16.098 	"/>
	<path class="st15" d="M28.45,7.412l3.816,4.176l-3.816,4.176v-1.299v-0.258h-0.258h-7.774V8.969h7.774h0.258V8.711V7.412
		 M28.192,6.747c0,0,0,1.017,0,1.964H20.16v5.754h8.032v1.964l4.424-4.841L28.192,6.747L28.192,6.747z"/>
</g>
<g>
	<polygon class="st14" points="59.811,14.336 51.779,14.336 51.779,8.84 59.811,8.84 59.811,7.08 63.93,11.588 59.811,16.098 	"/>
	<path class="st15" d="M59.94,7.412l3.816,4.176l-3.816,4.176v-1.299v-0.258h-0.258h-7.774V8.969h7.774h0.258V8.711V7.412
		 M59.682,6.747c0,0,0,1.017,0,1.964H51.65v5.754h8.032v1.964l4.424-4.841L59.682,6.747L59.682,6.747z"/>
</g>
<g>
	<polygon class="st14" points="91.225,14.336 83.193,14.336 83.193,8.84 91.225,8.84 91.225,7.08 95.345,11.588 91.225,16.098 	"/>
	<path class="st15" d="M91.354,7.412l3.816,4.176l-3.816,4.176v-1.299v-0.258h-0.258h-7.774V8.969h7.774h0.258V8.711V7.412
		 M91.096,6.747c0,0,0,1.017,0,1.964h-8.032v5.754h8.032v1.964l4.424-4.841L91.096,6.747L91.096,6.747z"/>
</g>
<g>
	<polygon class="st14" points="122.75,14.336 114.717,14.336 114.717,8.84 122.75,8.84 122.75,7.08 126.869,11.588 122.75,16.098 	
		"/>
	<path class="st15" d="M122.879,7.412l3.816,4.176l-3.816,4.176v-1.299v-0.258h-0.258h-7.774V8.969h7.774h0.258V8.711V7.412
		 M122.621,6.747c0,0,0,1.017,0,1.964h-8.032v5.754h8.032v1.964l4.424-4.841L122.621,6.747L122.621,6.747z"/>
</g>
</svg>